<svg width="40" height="24" viewBox="0 0 40 24" fill="none" xmlns="http://www.w3.org/2000/svg">
<rect width="2" height="24" fill="white"/>
<path d="M17 11.07H16.565C15.9714 11.0485 15.3797 11.1493 14.8266 11.366C14.2736 11.5828 13.771 11.9109 13.35 12.33L13.23 12.47V16.61H15.27V14.26L15.545 13.95L15.67 13.805C16.321 13.1362 17.1314 12.6441 18.025 12.375C17.5776 12.0345 17.2248 11.5853 17 11.07Z" fill="url(#paint0_linear_1_24648)"/>
<path d="M26.67 12.315C26.2491 11.8959 25.7465 11.5678 25.1934 11.351C24.6404 11.1343 24.0487 11.0335 23.455 11.055C23.273 11.0555 23.0911 11.0655 22.91 11.085C22.6811 11.5684 22.3379 11.9888 21.91 12.31C22.864 12.5739 23.7282 13.0924 24.41 13.81L24.535 13.95L24.805 14.26V16.615H26.775V12.455L26.67 12.315Z" fill="url(#paint1_linear_1_24648)"/>
<path d="M16.55 10.0949H16.705C16.633 9.47652 16.7415 8.85052 17.0174 8.29245C17.2933 7.73438 17.7249 7.2681 18.26 6.9499C18.066 6.65358 17.7984 6.41271 17.4834 6.25088C17.1684 6.08905 16.8167 6.0118 16.4629 6.02672C16.109 6.04163 15.7651 6.14818 15.4648 6.33594C15.1645 6.5237 14.9181 6.78623 14.7498 7.09783C14.5814 7.40942 14.4969 7.75939 14.5044 8.11348C14.512 8.46756 14.6114 8.81362 14.7928 9.11775C14.9743 9.42189 15.2316 9.67369 15.5397 9.84848C15.8477 10.0233 16.1958 10.1151 16.55 10.1149V10.0949Z" fill="url(#paint2_linear_1_24648)"/>
<path d="M23.215 9.71997C23.2211 9.83489 23.2211 9.95005 23.215 10.065C23.311 10.0802 23.4079 10.0885 23.505 10.09H23.6C23.9527 10.0712 24.2944 9.96138 24.592 9.77131C24.8896 9.58123 25.1328 9.31734 25.2982 9.00533C25.4635 8.69331 25.5452 8.3438 25.5354 7.99083C25.5255 7.63786 25.4244 7.29346 25.242 6.99115C25.0595 6.68883 24.8019 6.43892 24.4942 6.26573C24.1864 6.09254 23.8391 6.00199 23.486 6.00288C23.1329 6.00376 22.786 6.09607 22.4792 6.2708C22.1724 6.44553 21.916 6.69674 21.735 6.99997C22.1876 7.29543 22.5597 7.69862 22.818 8.17335C23.0763 8.64808 23.2127 9.17951 23.215 9.71997Z" fill="url(#paint3_linear_1_24648)"/>
<path d="M19.935 11.96C21.1694 11.96 22.17 10.9593 22.17 9.72499C22.17 8.49063 21.1694 7.48999 19.935 7.48999C18.7007 7.48999 17.7 8.49063 17.7 9.72499C17.7 10.9593 18.7007 11.96 19.935 11.96Z" fill="url(#paint4_linear_1_24648)"/>
<path d="M20.055 13.15C19.4021 13.1236 18.7505 13.2296 18.1395 13.4616C17.5286 13.6936 16.9709 14.0468 16.5 14.5L16.375 14.64V17.805C16.377 17.9081 16.3992 18.0098 16.4405 18.1043C16.4818 18.1988 16.5412 18.2842 16.6155 18.3557C16.6898 18.4272 16.7775 18.4834 16.8735 18.521C16.9695 18.5586 17.0719 18.577 17.175 18.575H22.92C23.0231 18.577 23.1256 18.5586 23.2216 18.521C23.3176 18.4834 23.4053 18.4272 23.4795 18.3557C23.5538 18.2842 23.6133 18.1988 23.6546 18.1043C23.6958 18.0098 23.7181 17.9081 23.72 17.805V14.65L23.6 14.5C23.1322 14.0454 22.5764 13.6913 21.9669 13.4591C21.3573 13.227 20.7067 13.1218 20.055 13.15Z" fill="url(#paint5_linear_1_24648)"/>
<defs>
<linearGradient id="paint0_linear_1_24648" x1="13.5929" y1="11.3835" x2="18.4548" y2="15.9047" gradientUnits="userSpaceOnUse">
<stop stop-color="#33A9FF"/>
<stop offset="1" stop-color="#2D47D2"/>
</linearGradient>
<linearGradient id="paint1_linear_1_24648" x1="22.2782" y1="11.3696" x2="27.1612" y2="15.9602" gradientUnits="userSpaceOnUse">
<stop stop-color="#33A9FF"/>
<stop offset="1" stop-color="#2D47D2"/>
</linearGradient>
<linearGradient id="paint2_linear_1_24648" x1="14.7882" y1="6.25833" x2="18.3849" y2="9.80896" gradientUnits="userSpaceOnUse">
<stop stop-color="#33A9FF"/>
<stop offset="1" stop-color="#2D47D2"/>
</linearGradient>
<linearGradient id="paint3_linear_1_24648" x1="22.0227" y1="6.23613" x2="25.6172" y2="9.82967" gradientUnits="userSpaceOnUse">
<stop stop-color="#33A9FF"/>
<stop offset="1" stop-color="#2D47D2"/>
</linearGradient>
<linearGradient id="paint4_linear_1_24648" x1="18.0383" y1="7.7451" x2="21.9593" y2="11.96" gradientUnits="userSpaceOnUse">
<stop stop-color="#33A9FF"/>
<stop offset="1" stop-color="#2D47D2"/>
</linearGradient>
<linearGradient id="paint5_linear_1_24648" x1="16.9309" y1="13.4554" x2="21.3898" y2="19.9394" gradientUnits="userSpaceOnUse">
<stop stop-color="#33A9FF"/>
<stop offset="1" stop-color="#2D47D2"/>
</linearGradient>
</defs>
</svg>
