<svg width="40" height="24" viewBox="0 0 40 24" fill="none" xmlns="http://www.w3.org/2000/svg">
<rect width="2" height="24" fill="white"/>
<path d="M13 5.00003V19C13 19.2652 13.1054 19.5196 13.2929 19.7071C13.4804 19.8947 13.7348 20 14 20H17V18H15V6.00003H17V4.00003H14C13.7348 4.00003 13.4804 4.10539 13.2929 4.29292C13.1054 4.48046 13 4.73481 13 5.00003ZM27.242 4.03003L19.242 2.03003C19.0946 1.99327 18.9408 1.99057 18.7922 2.02213C18.6436 2.05369 18.5042 2.11869 18.3845 2.21218C18.2648 2.30568 18.1679 2.42522 18.1013 2.56173C18.0347 2.69824 18 2.84813 18 3.00003V21C17.9997 21.1521 18.034 21.3022 18.1005 21.4389C18.167 21.5756 18.2639 21.6953 18.3837 21.7889C18.5035 21.8824 18.6431 21.9474 18.7919 21.9788C18.9406 22.0102 19.0946 22.0072 19.242 21.97L27.242 19.97C27.4584 19.916 27.6506 19.7913 27.788 19.6155C27.9253 19.4397 27.9999 19.2231 28 19V5.00003C27.9999 4.77697 27.9253 4.56033 27.788 4.38457C27.6506 4.2088 27.4584 4.08401 27.242 4.03003ZM23 12.188C22.9885 12.4455 22.8781 12.6886 22.6918 12.8668C22.5055 13.0449 22.2577 13.1443 22 13.1443C21.7423 13.1443 21.4945 13.0449 21.3082 12.8668C21.1219 12.6886 21.0115 12.4455 21 12.188V11.811C21.0001 11.5458 21.1056 11.2915 21.2932 11.1041C21.4809 10.9166 21.7353 10.8114 22.0005 10.8115C22.2657 10.8117 22.52 10.9171 22.7075 11.1048C22.8949 11.2924 23.0001 11.5468 23 11.812V12.188Z" fill="url(#paint0_linear_1_21719)"/>
<defs>
<linearGradient id="paint0_linear_1_21719" x1="14.1352" y1="3.14174" x2="31.3242" y2="16.9999" gradientUnits="userSpaceOnUse">
<stop stop-color="#33A9FF"/>
<stop offset="1" stop-color="#2D47D2"/>
</linearGradient>
</defs>
</svg>
