<svg width="32" height="32" viewBox="0 0 32 32" fill="none" xmlns="http://www.w3.org/2000/svg">
<circle cx="16" cy="16" r="16" fill="#0094FF"/>
<path fill-rule="evenodd" clip-rule="evenodd" d="M21.8334 21H10.1668C9.70759 21 9.33342 20.6266 9.33342 20.1666V12.0416L15.5001 16.6666C15.6484 16.7783 15.8243 16.8333 16.0001 16.8333C16.1759 16.8333 16.3518 16.7783 16.5001 16.6666L22.6668 12.0416V20.1666C22.6668 20.6266 22.2926 21 21.8334 21ZM21.2776 11L16.0001 14.9583L10.7226 11H21.2776ZM21.8334 9.33331H10.1667C8.78838 9.33331 7.66671 10.455 7.66671 11.8333V20.1666C7.66671 21.545 8.78838 22.6666 10.1667 22.6666H21.8334C23.2117 22.6666 24.3334 21.545 24.3334 20.1666V11.8333C24.3334 10.455 23.2117 9.33331 21.8334 9.33331Z" fill="white"/>
<circle cx="28" cy="4" r="3.5" fill="#FC6C6C" stroke="white"/>
</svg>
