<svg width="32" height="32" viewBox="0 0 32 32" fill="none" xmlns="http://www.w3.org/2000/svg">
<circle cx="16" cy="16" r="16" fill="#0094FF"/>
<path fill-rule="evenodd" clip-rule="evenodd" d="M10.5955 19.3333L11.5789 18.3483C11.8939 18.0333 12.0672 17.615 12.0672 17.17V13.2725C12.0672 12.1416 12.5589 11.0608 13.4172 10.3091C14.2822 9.55082 15.3839 9.21748 16.5314 9.36832C18.4705 9.62582 19.933 11.3791 19.933 13.4475V17.17C19.933 17.615 20.1064 18.0333 20.4205 18.3475L21.4047 19.3333H10.5955ZM17.6663 21.2841C17.6663 22.0333 16.9029 22.6666 15.9996 22.6666C15.0963 22.6666 14.3329 22.0333 14.3329 21.2841V21H17.6663V21.2841ZM23.1005 18.6733L21.5997 17.17V13.4475C21.5997 10.5466 19.5147 8.08248 16.7497 7.71665C15.148 7.50332 13.5313 7.99248 12.3188 9.05582C11.0988 10.1241 10.4005 11.6608 10.4005 13.2725L10.3997 17.17L8.89882 18.6733C8.50799 19.065 8.39215 19.6475 8.60382 20.1583C8.81632 20.67 9.31049 21 9.86382 21H12.6663V21.2842C12.6663 22.9658 14.1613 24.3333 15.9997 24.3333C17.838 24.3333 19.333 22.9658 19.333 21.2842V21H22.1355C22.6888 21 23.1822 20.67 23.3938 20.1591C23.6063 19.6475 23.4913 19.0641 23.1005 18.6733Z" fill="white"/>
<circle cx="28" cy="4" r="3.5" fill="#FC6C6C" stroke="white"/>
</svg>
