<svg width="40" height="24" viewBox="0 0 40 24" fill="none" xmlns="http://www.w3.org/2000/svg">
<rect width="2" height="24" fill="white"/>
<path fill-rule="evenodd" clip-rule="evenodd" d="M27 3H13C11.346 3 10 4.6825 10 6.75V13V14C10 15.654 11.346 17 13 17H19V19H15C14.45 19 14 19.45 14 20C14 20.55 14.45 21 15 21H25C25.55 21 26 20.55 26 20C26 19.45 25.55 19 25 19H21V17H27C28.654 17 30 15.654 30 14V13V6.75C30 4.6825 28.654 3 27 3ZM20.3131 13.9995H19.6876V13.616C19.6876 13.1484 19.3996 12.7285 18.9431 12.54C18.4976 12.354 17.9961 12.4474 17.6651 12.7785L17.3926 13.051L16.9491 12.6075L17.2196 12.338C17.5526 12.0065 17.6471 11.504 17.4546 11.044C17.2716 10.5995 16.8511 10.312 16.3836 10.312H16.0001V9.68695H16.3836C16.8511 9.68695 17.2716 9.39895 17.4596 8.94245C17.6461 8.49695 17.5521 7.99495 17.2211 7.66395L16.9486 7.39195L17.3926 6.94795L17.6621 7.21845C17.9936 7.55195 18.4961 7.64645 18.9556 7.45395C19.4001 7.27045 19.6876 6.85045 19.6876 6.38295V5.99945H20.3131V6.38295C20.3131 6.85045 20.6011 7.27045 21.0576 7.45895C21.5031 7.64495 22.0046 7.55145 22.3356 7.22045L22.6081 6.94795L23.0516 7.39145L22.7811 7.66095C22.4481 7.99245 22.3536 8.49495 22.5461 8.95495C22.7291 9.39945 23.1496 9.68695 23.6171 9.68695H24.0001V10.312H23.6171C23.1496 10.312 22.7291 10.6 22.5471 11.0415L22.5416 11.0555C22.5416 11.056 22.5411 11.0565 22.5411 11.0565C22.3546 11.502 22.4481 12.004 22.7796 12.335L23.0521 12.607L22.6081 13.051L22.3386 12.7805C22.0076 12.4475 21.5051 12.3534 21.0451 12.545C20.6006 12.7284 20.3131 13.1484 20.3131 13.616V13.9995ZM19.5255 15H20.4715C20.9355 15 21.313 14.6225 21.313 14.1585V13.6165C21.313 13.543 21.3715 13.493 21.4445 13.4625C21.4995 13.4395 21.5775 13.4335 21.63 13.486L22.0125 13.8705C22.171 14.03 22.3825 14.1175 22.607 14.1175H22.608C22.8325 14.1175 23.043 14.0305 23.202 13.8715L23.872 13.2015C24.199 12.8745 24.199 12.3415 23.872 12.013L23.4865 11.628C23.4345 11.576 23.4405 11.4985 23.4635 11.443C23.4637 11.4426 23.4645 11.4405 23.4656 11.4379C23.4676 11.4332 23.4702 11.4268 23.4705 11.4265C23.493 11.3715 23.5435 11.3125 23.617 11.3125H24.162C24.6245 11.3125 25 10.937 25 10.4745V9.5285C25 9.0645 24.623 8.6875 24.159 8.6875H23.617C23.543 8.6875 23.493 8.629 23.463 8.5555C23.4395 8.5 23.434 8.423 23.4865 8.3705L23.871 7.9875C24.0305 7.829 24.118 7.6175 24.118 7.3935C24.1185 7.1685 24.0315 6.9575 23.8725 6.799L23.202 6.1285C22.8745 5.8005 22.3415 5.8015 22.0135 6.1285L21.6285 6.514C21.576 6.5665 21.499 6.56 21.4265 6.53C21.3715 6.5075 21.313 6.457 21.313 6.3835V5.838C21.313 5.376 20.937 5 20.475 5H19.529C19.065 5 18.6875 5.3775 18.6875 5.8415V6.3835C18.6875 6.457 18.629 6.507 18.556 6.5375C18.5005 6.561 18.423 6.567 18.3705 6.514L17.988 6.1295C17.8295 5.97 17.618 5.8825 17.3935 5.8825H17.3925C17.168 5.8825 16.9575 5.9695 16.7985 6.1285L16.1285 6.7985C15.8015 7.1255 15.8015 7.6585 16.1285 7.987L16.514 8.372C16.566 8.424 16.56 8.5015 16.53 8.5735C16.5075 8.6285 16.457 8.6875 16.3835 8.6875H15.8385C15.376 8.6875 15 9.063 15 9.5255V10.4715C15 10.9355 15.3775 11.3125 15.8415 11.3125H16.3835C16.4575 11.3125 16.5075 11.371 16.5375 11.4445C16.561 11.5 16.5665 11.577 16.514 11.6295L16.13 12.012C15.9705 12.171 15.883 12.382 15.8825 12.6065C15.8825 12.8315 15.9695 13.0425 16.1285 13.2015L16.7985 13.8715C17.126 14.1995 17.659 14.1985 17.987 13.8715L18.372 13.486C18.425 13.4345 18.502 13.4405 18.574 13.47C18.629 13.4925 18.6875 13.543 18.6875 13.6165V14.162C18.6875 14.624 19.0635 15 19.5255 15ZM19.2505 9.99957C19.2505 9.58607 19.587 9.24957 20.0005 9.24957C20.414 9.24957 20.7505 9.58607 20.7505 9.99957C20.7505 10.4131 20.414 10.7496 20.0005 10.7496C19.587 10.7496 19.2505 10.4131 19.2505 9.99957ZM18.2504 9.99951C18.2504 10.9645 19.0354 11.7495 20.0004 11.7495C20.9654 11.7495 21.7504 10.9645 21.7504 9.99951C21.7504 9.03451 20.9654 8.24951 20.0004 8.24951C19.0354 8.24951 18.2504 9.03451 18.2504 9.99951Z" fill="url(#paint0_linear_1_21718)"/>
<defs>
<linearGradient id="paint0_linear_1_21718" x1="11.5136" y1="4.0273" x2="27.0974" y2="22.6407" gradientUnits="userSpaceOnUse">
<stop stop-color="#33A9FF"/>
<stop offset="1" stop-color="#2D47D2"/>
</linearGradient>
</defs>
</svg>
