<svg width="40" height="24" viewBox="0 0 40 24" fill="none" xmlns="http://www.w3.org/2000/svg">
<rect width="2" height="24" fill="white"/>
<path d="M20.975 5.0925L18.35 7.7175L18.875 8.25L19.925 7.2075L20.75 8.0325V9.75C20.75 10.5825 20.0825 11.25 19.25 11.25H18.845C19.5862 12.0737 19.9975 13.1419 20 14.25C19.9985 14.5014 19.9759 14.7523 19.9325 15H22.2725C22.3647 14.1752 22.7576 13.4134 23.376 12.86C23.9944 12.3065 24.7951 12.0004 25.625 12C26.2926 12.0004 26.9451 12.1987 27.5 12.57V9C27.5 8.1675 26.8325 7.5 26 7.5H21.2825L20.4575 6.675L21.5 5.625L20.975 5.0925ZM14 8.25C13.5875 8.25 13.25 8.5875 13.25 9C13.25 9.4125 13.5875 9.75 14 9.75H17.75C17.75 9.35217 17.592 8.97064 17.3107 8.68934C17.0294 8.40803 16.6478 8.25 16.25 8.25H14ZM15.5 10.5C15.1025 10.5001 14.7076 10.5634 14.33 10.6875L14.6 11.385L14.2475 11.52L14 10.8225C13.2028 11.1687 12.5506 11.7811 12.155 12.555L12.8375 12.8625L12.68 13.2L12.005 12.9C11.8376 13.3305 11.7511 13.7881 11.75 14.25C11.7501 14.6475 11.8134 15.0424 11.9375 15.42L12.635 15.15L12.77 15.5025L12.0725 15.75C12.4187 16.5472 13.0311 17.1993 13.805 17.595L14.105 16.9125L14.45 17.07L14.15 17.745C14.5805 17.9124 15.0381 17.9989 15.5 18C15.8975 17.9999 16.2924 17.9366 16.67 17.8125L16.4 17.115L16.7525 16.98L17 17.6775C17.7972 17.3313 18.4494 16.7189 18.845 15.945L18.1625 15.645L18.32 15.3L18.995 15.6C19.1624 15.1695 19.2489 14.7119 19.25 14.25C19.2499 13.8525 19.1866 13.4576 19.0625 13.08L18.365 13.35L18.23 12.9975L18.9275 12.75C18.5813 11.9528 17.9689 11.3006 17.195 10.905L16.895 11.5875L16.55 11.43L16.85 10.755C16.4195 10.5876 15.9619 10.5011 15.5 10.5ZM15.5 12C16.0967 12 16.669 12.2371 17.091 12.659C17.5129 13.081 17.75 13.6533 17.75 14.25C17.75 14.8467 17.5129 15.419 17.091 15.841C16.669 16.2629 16.0967 16.5 15.5 16.5C14.9033 16.5 14.331 16.2629 13.909 15.841C13.4871 15.419 13.25 14.8467 13.25 14.25C13.25 13.6533 13.4871 13.081 13.909 12.659C14.331 12.2371 14.9033 12 15.5 12ZM25.625 12.75C24.9288 12.75 24.2611 13.0266 23.7688 13.5188C23.2766 14.0111 23 14.6788 23 15.375C23 16.0712 23.2766 16.7389 23.7688 17.2312C24.2611 17.7234 24.9288 18 25.625 18C26.3212 18 26.9889 17.7234 27.4812 17.2312C27.9734 16.7389 28.25 16.0712 28.25 15.375C28.25 14.6788 27.9734 14.0111 27.4812 13.5188C26.9889 13.0266 26.3212 12.75 25.625 12.75ZM25.625 14.25C25.9234 14.25 26.2095 14.3685 26.4205 14.5795C26.6315 14.7905 26.75 15.0766 26.75 15.375C26.75 15.6734 26.6315 15.9595 26.4205 16.1705C26.2095 16.3815 25.9234 16.5 25.625 16.5C25.3266 16.5 25.0405 16.3815 24.8295 16.1705C24.6185 15.9595 24.5 15.6734 24.5 15.375C24.5 15.0766 24.6185 14.7905 24.8295 14.5795C25.0405 14.3685 25.3266 14.25 25.625 14.25Z" fill="url(#paint0_linear_1_24711)"/>
<defs>
<linearGradient id="paint0_linear_1_24711" x1="12.9988" y1="5.82915" x2="23.8002" y2="20.6721" gradientUnits="userSpaceOnUse">
<stop stop-color="#33A9FF"/>
<stop offset="1" stop-color="#2D47D2"/>
</linearGradient>
</defs>
</svg>
