<svg width="32" height="32" viewBox="0 0 32 32" fill="none" xmlns="http://www.w3.org/2000/svg">
<circle cx="16" cy="16" r="16" fill="#0094FF"/>
<path fill-rule="evenodd" clip-rule="evenodd" d="M15.9996 9.3335C19.0396 9.3335 21.9171 10.496 24.1038 12.6077C24.4346 12.9268 24.4438 13.4552 24.1246 13.786C23.9613 13.9552 23.743 14.0402 23.5255 14.0402C23.3171 14.0402 23.108 13.9627 22.9463 13.806C21.0713 11.9968 18.6046 11.0002 15.9996 11.0002C13.3946 11.0002 10.928 11.9968 9.05296 13.806C8.7238 14.1268 8.19546 14.1177 7.87463 13.786C7.5563 13.4552 7.56463 12.9268 7.8963 12.6077C10.083 10.496 12.9605 9.3335 15.9996 9.3335ZM15.9999 13.5C13.9766 13.5 12.0099 14.3342 10.6041 15.79C10.2858 16.1217 10.2941 16.6492 10.6258 16.9683C10.9558 17.2883 11.4849 17.2792 11.8041 16.9483C12.8966 15.8158 14.4258 15.1667 15.9999 15.1667C17.5741 15.1667 19.1033 15.8158 20.1958 16.9483C20.3591 17.1175 20.5774 17.2025 20.7958 17.2025C21.0041 17.2025 21.2133 17.125 21.3741 16.9683C21.7058 16.6492 21.7141 16.1217 21.3958 15.79C19.9899 14.3342 18.0233 13.5 15.9999 13.5ZM13.1058 18.8358C13.8866 18.0825 14.9141 17.6667 16 17.6667C17.0858 17.6667 18.1133 18.0825 18.8941 18.8358C19.225 19.1558 19.2341 19.6833 18.915 20.0142C18.7516 20.1842 18.5333 20.2692 18.315 20.2692C18.1066 20.2692 17.8975 20.1908 17.7366 20.035C16.7991 19.13 15.2008 19.13 14.2633 20.035C13.9341 20.355 13.4058 20.3458 13.085 20.0142C12.7658 19.6833 12.775 19.1558 13.1058 18.8358ZM15.1666 21.8333C15.1666 21.3733 15.5391 21 16 21C16.4608 21 16.8333 21.3733 16.8333 21.8333C16.8333 22.2933 16.4608 22.6667 16 22.6667C15.5391 22.6667 15.1666 22.2933 15.1666 21.8333Z" fill="white"/>
<circle cx="28" cy="4" r="3.5" fill="#FC6C6C" stroke="white"/>
</svg>
